<mxfile host="app.diagrams.net" modified="2020-05-20T17:06:46.115Z" agent="5.0 (Macintosh)" etag="6cokxOfxogXY3T7RESFj" version="13.1.0" type="github">
  <diagram id="BdwqBkt1ta7nYi4JXMoV" name="Page-1">
    <mxGraphModel dx="1186" dy="651" grid="1" gridSize="10" guides="1" tooltips="1" connect="1" arrows="1" fold="1" page="1" pageScale="1" pageWidth="850" pageHeight="1100" math="0" shadow="0">
      <root>
        <mxCell id="0" />
        <mxCell id="1" parent="0" />
        <mxCell id="UuLvZ_INoNhn118RGKSA-1" value="Monolithic WebApp Cluster" style="rounded=0;whiteSpace=wrap;html=1;" vertex="1" parent="1">
          <mxGeometry x="11" y="70" width="390" height="300" as="geometry" />
        </mxCell>
        <mxCell id="UuLvZ_INoNhn118RGKSA-2" value="VM1" style="ellipse;whiteSpace=wrap;html=1;" vertex="1" parent="1">
          <mxGeometry x="90" y="155" width="100" height="40" as="geometry" />
        </mxCell>
        <mxCell id="UuLvZ_INoNhn118RGKSA-3" value="VM1" style="ellipse;whiteSpace=wrap;html=1;" vertex="1" parent="1">
          <mxGeometry x="220" y="155" width="100" height="40" as="geometry" />
        </mxCell>
        <mxCell id="UuLvZ_INoNhn118RGKSA-4" value="VM3" style="ellipse;whiteSpace=wrap;html=1;" vertex="1" parent="1">
          <mxGeometry x="90" y="245" width="100" height="40" as="geometry" />
        </mxCell>
        <mxCell id="UuLvZ_INoNhn118RGKSA-5" value="VM4" style="ellipse;whiteSpace=wrap;html=1;" vertex="1" parent="1">
          <mxGeometry x="220" y="245" width="100" height="40" as="geometry" />
        </mxCell>
        <mxCell id="UuLvZ_INoNhn118RGKSA-8" value="VM" style="rounded=0;whiteSpace=wrap;html=1;" vertex="1" parent="1">
          <mxGeometry x="510" y="70" width="310" height="300" as="geometry" />
        </mxCell>
        <mxCell id="UuLvZ_INoNhn118RGKSA-9" value="DC1" style="ellipse;whiteSpace=wrap;html=1;" vertex="1" parent="1">
          <mxGeometry x="550" y="130" width="90" height="50" as="geometry" />
        </mxCell>
        <mxCell id="UuLvZ_INoNhn118RGKSA-10" value="DC2" style="ellipse;whiteSpace=wrap;html=1;" vertex="1" parent="1">
          <mxGeometry x="690" y="120" width="90" height="50" as="geometry" />
        </mxCell>
        <mxCell id="UuLvZ_INoNhn118RGKSA-11" value="DC3" style="ellipse;whiteSpace=wrap;html=1;" vertex="1" parent="1">
          <mxGeometry x="560" y="205" width="90" height="50" as="geometry" />
        </mxCell>
        <mxCell id="UuLvZ_INoNhn118RGKSA-14" value="Kubernetes" style="rounded=1;whiteSpace=wrap;html=1;" vertex="1" parent="1">
          <mxGeometry x="590" y="490" width="120" height="60" as="geometry" />
        </mxCell>
        <mxCell id="UuLvZ_INoNhn118RGKSA-15" value="" style="endArrow=classic;html=1;exitX=0.5;exitY=0;exitDx=0;exitDy=0;entryX=0.532;entryY=1.013;entryDx=0;entryDy=0;entryPerimeter=0;" edge="1" parent="1" source="UuLvZ_INoNhn118RGKSA-14" target="UuLvZ_INoNhn118RGKSA-8">
          <mxGeometry width="50" height="50" relative="1" as="geometry">
            <mxPoint x="400" y="370" as="sourcePoint" />
            <mxPoint x="450" y="320" as="targetPoint" />
          </mxGeometry>
        </mxCell>
        <mxCell id="UuLvZ_INoNhn118RGKSA-16" value="DC5" style="ellipse;whiteSpace=wrap;html=1;" vertex="1" parent="1">
          <mxGeometry x="550" y="290" width="90" height="50" as="geometry" />
        </mxCell>
        <mxCell id="UuLvZ_INoNhn118RGKSA-17" value="DC4" style="ellipse;whiteSpace=wrap;html=1;" vertex="1" parent="1">
          <mxGeometry x="690" y="205" width="90" height="50" as="geometry" />
        </mxCell>
        <mxCell id="UuLvZ_INoNhn118RGKSA-18" value="DC6" style="ellipse;whiteSpace=wrap;html=1;" vertex="1" parent="1">
          <mxGeometry x="700" y="285" width="90" height="50" as="geometry" />
        </mxCell>
      </root>
    </mxGraphModel>
  </diagram>
</mxfile>
